<?xml version="1.0" encoding="UTF-8"?>
<svg width="220px" height="36px" viewBox="0 0 220 36" version="1.1" xmlns="http://www.w3.org/2000/svg" xmlns:xlink="http://www.w3.org/1999/xlink">
    <!-- Generator: Sketch 53 (72520) - https://sketchapp.com -->
    <title>Group 27</title>
    <desc>Created with Sketch.</desc>
    <defs>
        <polygon id="path-1" points="0 34.841629 219.524661 34.841629 219.524661 0.235927602 0 0.235927602"></polygon>
    </defs>
    <g id="登录" stroke="none" stroke-width="1" fill="none" fill-rule="evenodd">
        <g id="pc" transform="translate(-40.000000, -40.000000)">
            <g id="Group-27" transform="translate(40.000564, 40.000000)">
                <polygon id="Fill-1" fill="#FFFFFF" points="147.042127 29.1102805 147.94552 29.1102805 147.94552 6.7638552 147.042127 6.7638552"></polygon>
                <g id="Group-26" transform="translate(0.000000, 0.261910)">
                    <path d="M51.29081,17.6043801 C51.6705837,18.3002172 52.0264661,18.9781357 52.3569638,19.637638 C52.688457,20.3006244 52.9940679,20.8949231 53.2747919,21.4255113 C54.069181,20.1518009 54.7799502,18.8955113 55.4075973,17.6546516 C54.9770543,16.8607602 54.5649276,16.1012127 54.1667376,15.3715294 C53.7705385,14.6443348 53.4151538,14.0072308 53.1010814,13.4622081 C52.8198597,14.1734751 52.5296787,14.8727964 52.2335249,15.558181 C51.9358778,16.2450588 51.6213077,16.9269593 51.29081,17.6043801 L51.29081,17.6043801 Z M51.3156968,24.3756018 C51.579,23.9968235 51.8358326,23.6200362 52.0837059,23.248724 C52.3330724,22.8749231 52.5809457,22.499629 52.828819,22.1188597 L51.5635701,22.7893122 L50.1246109,19.8616199 C49.100267,21.7813937 48.0326199,23.5254661 46.9251538,25.0963258 L45.7340679,24.2531584 L45.7340679,28.1723439 L43.3533891,28.1723439 L43.3533891,7.16234389 L63.2957421,7.16234389 L63.2957421,24.7991765 C63.2957421,25.4432489 63.2459683,25.9723439 63.147914,26.3854661 C63.0478688,26.8000814 62.8617149,27.1260995 62.5889548,27.3655113 C62.3156968,27.6044253 61.9438869,27.7746516 61.4730271,27.8746968 C61.0016697,27.9737466 60.4023937,28.0225249 59.6747014,28.0225249 L56.8221674,28.0225249 L56.3503122,25.7662805 L59.0052443,25.7662805 C59.4014434,25.7662805 59.7244751,25.7443801 59.9713529,25.7030679 C60.219724,25.6617557 60.4098597,25.5801267 60.5427557,25.4546968 C60.6746561,25.3322534 60.7657421,25.1605339 60.8160136,24.946009 C60.8657873,24.7314842 60.8896787,24.4502624 60.8896787,24.1033394 L60.8896787,9.44347511 L45.7340679,9.44347511 L45.7340679,22.9630226 C46.3129367,22.1362805 46.8713982,21.2756923 47.408457,20.3837466 C47.9460136,19.48981 48.4621674,18.5555566 48.9584118,17.5804887 C48.4138869,16.5058733 47.8753348,15.4800362 47.3462398,14.5034751 C46.8171448,13.5294027 46.3632081,12.6941991 45.9824389,11.9993575 L47.768819,11.12981 L50.0748371,15.3232489 C50.4227557,14.5457828 50.7492715,13.7643348 51.0548824,12.9794027 C51.360991,12.1939729 51.6536606,11.4040633 51.9358778,10.6101719 L53.8944751,11.3050136 C53.8123484,11.5518914 53.7257421,11.8002624 53.6351538,12.0481357 C53.5435701,12.2970045 53.449,12.5448778 53.3494525,12.7927511 L54.6142036,12.0974118 C54.8620769,12.5448778 55.148276,13.0500814 55.4698145,13.6110317 C55.7933439,14.1734751 56.1273258,14.7687692 56.4752443,15.3974118 C56.8047466,14.6532941 57.1153348,13.9041991 57.4045204,13.1521176 C57.6937059,12.3995385 57.9629819,11.6524344 58.2113529,10.907819 L60.1465566,11.6016652 C59.4845656,13.6697647 58.6827104,15.7035204 57.7399955,17.7039276 C58.2855158,18.6964163 58.8141131,19.668 59.3272805,20.6186787 C59.8399502,21.5693575 60.2948824,22.4334299 60.6925747,23.2113937 L58.8066471,24.1775023 C58.5085023,23.599629 58.1745204,22.9465973 57.8022127,22.2179095 C57.4294072,21.4907149 57.0366923,20.7301719 56.6230724,19.9357828 C56.1113982,20.9133394 55.5604027,21.8675023 54.9740679,22.8012579 C54.3872353,23.7355113 53.7625747,24.6747421 53.1010814,25.617457 L51.3156968,24.3756018 Z" id="Fill-2" fill="#FFFFFF"></path>
                    <mask id="mask-2" fill="white">
                        <use xlink:href="#path-1"></use>
                    </mask>
                    <g id="Clip-5"></g>
                    <path d="M72.6721719,13.5857466 L84.2560181,13.5857466 L84.2560181,12.0970136 L72.6721719,12.0970136 L72.6721719,13.5857466 Z M72.6721719,10.2882353 L84.2560181,10.2882353 L84.2560181,8.77461538 L72.6721719,8.77461538 L72.6721719,10.2882353 Z M67.0168778,20.3574661 C68.1576923,19.6800452 69.1671041,18.931448 70.0441176,18.1136652 C70.919638,17.2943891 71.6712217,16.4143891 72.3013575,15.4706787 L70.3656561,15.4706787 L70.3656561,6.9140724 L86.5381448,6.9140724 L86.5381448,15.4706787 L73.3426244,15.4706787 L74.6571493,16.0405882 C74.4919005,16.2735294 74.3301357,16.4975113 74.1733484,16.7125339 C74.0155656,16.9270588 73.8542986,17.1425792 73.6900452,17.3571041 L87.9522172,17.3571041 C87.8521719,18.4322172 87.7615837,19.4411312 87.679457,20.3828507 C87.6461086,20.7790498 87.6087783,21.1857014 87.5679638,21.5988235 C87.5261538,22.011448 87.4888235,22.4046606 87.4559729,22.7769683 C87.4241176,23.1482805 87.3942534,23.4842534 87.3688688,23.7819005 C87.3439819,24.0780543 87.3235747,24.3104977 87.3071493,24.4742534 C87.2235294,25.0874661 87.1040724,25.5911765 86.9477828,25.988371 C86.7895023,26.3850679 86.5580543,26.7031222 86.2529412,26.9445249 C85.9468326,27.1834389 85.5585973,27.3486878 85.0867421,27.4407692 C84.6153846,27.5298643 84.0330317,27.5766516 83.3391855,27.5766516 L79.9894118,27.5766516 L79.5429412,25.4179638 L82.371086,25.4179638 C82.8668326,25.4179638 83.2804525,25.3945701 83.6109502,25.3442986 C83.9419457,25.2945249 84.2062443,25.2024434 84.4048416,25.0715385 C84.6029412,24.939638 84.7562443,24.7529864 84.8642534,24.5120814 C84.9717647,24.2731674 85.048914,23.9645701 85.0991855,23.5823077 L85.5700452,19.341086 L82.8419457,19.341086 C82.5119457,20.3340724 82.1107692,21.2548869 81.638914,22.1070136 C81.1675566,22.9581448 80.5976471,23.7644796 79.9286878,24.5255204 C79.2572398,25.2865611 78.4733032,26.009276 77.5714027,26.6961538 C76.6695023,27.3810407 75.6247511,28.0475113 74.4336652,28.6915837 L72.9200452,26.9315837 C74.0120814,26.3517195 74.9587783,25.7867873 75.7606335,25.2323077 C76.561991,24.6788235 77.2573303,24.1034389 77.8441629,23.5071493 C78.4304977,22.9128507 78.9312217,22.2777376 79.3443439,21.5988235 C79.7579638,20.9199095 80.12181,20.1673303 80.4358824,19.341086 L77.559457,19.341086 C77.1124887,20.1519005 76.599819,20.9039819 76.0209502,21.5988235 C75.4415837,22.2926697 74.7726244,22.9511765 74.0120814,23.5713575 C73.2520362,24.1900452 72.3824887,24.7818552 71.4069231,25.3442986 C70.4318552,25.9067421 69.3238914,26.4676923 68.0835294,27.0311312 L66.8431674,25.1461991 C67.9352036,24.7166516 68.9102715,24.2771493 69.7708597,23.830181 C70.6299548,23.3852036 71.3909955,22.9178281 72.0529864,22.4300452 C72.7134842,21.9417647 73.2888688,21.4410407 73.7761538,20.9288688 C74.2634389,20.4166968 74.6810407,19.8856109 75.029457,19.341086 L71.8548869,19.341086 C71.3576471,19.8199095 70.828552,20.2793213 70.2656109,20.7178281 C69.7041629,21.1563348 69.0919457,21.5988235 68.4304525,22.0447964 L67.0168778,20.3574661 Z" id="Fill-4" fill="#FFFFFF" mask="url(#mask-2)"></path>
                    <path d="M101.941878,27.5766516 C102.553597,26.7334842 103.053326,25.9271493 103.443054,25.1571493 C103.83129,24.389638 104.1369,23.5713575 104.359887,22.7033032 C104.583869,21.8347511 104.731697,20.8636652 104.807353,19.7880543 C104.882014,18.7119457 104.918846,17.4476923 104.918846,15.99181 L104.918846,8.15294118 C105.645543,8.08823529 106.390656,8.00461538 107.151199,7.90656109 C107.911742,7.80701357 108.659842,7.68705882 109.395498,7.54669683 C110.131652,7.40633484 110.834457,7.24855204 111.50491,7.07484163 C112.173869,6.90063348 112.781606,6.71447964 113.326629,6.5178733 L114.071742,8.72384615 C113.625271,8.88959276 113.124548,9.04638009 112.570566,9.1961991 C112.016086,9.34502262 111.430249,9.48538462 110.809072,9.61778281 C110.189389,9.75067873 109.565226,9.86914027 108.937579,9.97714932 C108.308937,10.0846606 107.697217,10.1638009 107.100928,10.2140724 L107.100928,13.9834389 L114.591878,13.9834389 L114.591878,16.1904072 L112.086765,16.1904072 L112.086765,28.2217195 L109.879299,28.2217195 L109.879299,16.1904072 L107.100928,16.1904072 L107.100928,16.488552 C107.100928,17.9608597 107.06509,19.2460181 106.99043,20.3460181 C106.915271,21.4460181 106.77043,22.4539367 106.556403,23.371267 C106.340882,24.289095 106.043733,25.1606335 105.662964,25.988371 C105.281697,26.8146154 104.786448,27.6921267 104.174729,28.6179186 L101.941878,27.5766516 Z M101.19776,20.7551584 C101.396357,21.0030317 101.61586,21.2882353 101.855769,21.611267 C102.095181,21.9328054 102.330113,22.2548416 102.563054,22.5773756 C102.793507,22.8999095 103.020973,23.2189593 103.244955,23.5330317 C103.466946,23.8485973 103.6531,24.120362 103.801923,24.3523077 L102.189751,25.5423982 C102.041425,25.2945249 101.859253,25.0093213 101.644231,24.6872851 C101.429208,24.3647511 101.20224,24.0347511 100.96233,23.6933032 C100.722421,23.3558371 100.486493,23.0253394 100.255543,22.7033032 C100.023597,22.381267 99.8170362,22.0940724 99.635362,21.8461991 L101.19776,20.7551584 Z M98.6184842,13.7843439 C98.8663575,13.3219457 99.1386199,12.76 99.4367647,12.0970136 C99.7344118,11.4370136 99.9902489,10.8247964 100.205769,10.2628507 L95.8147285,10.2628507 C96.0630995,10.7426697 96.3189367,11.2677828 96.5842308,11.83819 C96.8490271,12.4080995 97.0799774,12.9337104 97.2785747,13.4130317 L96.3861312,13.7843439 L98.6184842,13.7843439 Z M94.823733,10.2628507 L92.5406109,10.2628507 L92.5406109,8.25348416 L97.2049095,8.25348416 L96.3612443,6.120181 L98.4701584,5.49950226 L99.53681,8.25348416 L103.678982,8.25348416 L103.678982,10.2628507 L101.446629,10.2628507 L102.240023,10.5117195 C102.056855,10.9746154 101.842828,11.5027149 101.594955,12.0970136 C101.347081,12.6942986 101.09871,13.2557466 100.850837,13.7843439 L104.150339,13.7843439 L104.150339,15.7942081 L99.3133258,15.7942081 L99.3133258,18.1997738 L103.827805,18.1997738 L103.827805,20.2340271 L99.3133258,20.2340271 L99.3133258,25.6170588 C99.3133258,26.0789593 99.2715158,26.4637104 99.1898869,26.7693213 C99.106267,27.0764253 98.9614253,27.3242986 98.7543665,27.5144344 C98.5483032,27.7040724 98.2626018,27.8374661 97.8987557,27.9106335 C97.5349095,27.9857919 97.0715158,28.0236199 96.5100679,28.0236199 L95.1213801,28.0236199 L94.6749095,25.8395475 L95.6425113,25.8395475 C95.9720136,25.8395475 96.2328281,25.8236199 96.4229638,25.7907692 C96.6135973,25.7569231 96.7574434,25.6912217 96.8574887,25.5911765 C96.9560407,25.4921267 97.0227376,25.3567421 97.0555882,25.1825339 C97.0889367,25.0093213 97.1048643,24.7813575 97.1048643,24.5011312 L97.1048643,20.2340271 L92.2180769,20.2340271 L92.2180769,18.1997738 L97.1048643,18.1997738 L97.1048643,15.7942081 L91.9204299,15.7942081 L91.9204299,13.7843439 L95.2692081,13.7843439 C95.0711086,13.289095 94.8436425,12.7475566 94.5873077,12.1602262 C94.3314706,11.5738914 94.0870814,11.0647059 93.8561312,10.6341629 L94.823733,10.2628507 Z M91.4749548,25.988371 C92.003552,25.2447511 92.5082579,24.4045701 92.9880769,23.4703167 C93.4678959,22.5365611 93.8720588,21.6152489 94.2030543,20.7048869 L96.0630995,21.3509502 C95.8804299,21.7969231 95.6793439,22.269276 95.4558597,22.7635294 C95.2328733,23.259276 94.9974434,23.7560181 94.7490724,24.2532579 C94.5011991,24.7485068 94.2443665,25.2278281 93.9800679,25.6912217 C93.7157692,26.1551131 93.4589367,26.5846606 93.2110633,26.9808597 L91.4749548,25.988371 Z" id="Fill-6" fill="#FFFFFF" mask="url(#mask-2)"></path>
                    <path d="M130.641525,22.5910136 L130.641525,20.8041357 L125.383425,20.8041357 L125.383425,22.8393846 L130.641525,22.5910136 Z M125.383425,18.9938643 L130.641525,18.9938643 L130.641525,17.1577104 L125.383425,17.1577104 L125.383425,18.9938643 Z M125.383425,15.3474389 L130.641525,15.3474389 L130.641525,13.5366697 L125.383425,13.5366697 L125.383425,15.3474389 Z M138.207136,7.21191855 L138.207136,25.194181 C138.207136,25.7904706 138.157362,26.2862172 138.057814,26.682914 C137.959262,27.0811041 137.785552,27.3897014 137.537181,27.6136833 C137.28881,27.8366697 136.95433,27.993457 136.532249,28.0850407 C136.111163,28.1751312 135.57709,28.2209231 134.933018,28.2209231 L133.493561,28.2209231 L133.121751,26.0871222 L134.163018,26.0871222 C134.874285,26.0871222 135.34614,25.9960362 135.57709,25.8148597 C135.809036,25.6326878 135.924511,25.2534118 135.924511,24.674543 L135.924511,9.44377376 L124.315778,9.44377376 L124.315778,7.21191855 L138.207136,7.21191855 Z M121.066548,23.0120995 C121.231796,23.0120995 121.500575,23.0086154 121.873878,23.0001538 C122.244692,22.9926878 122.695145,22.9707873 123.225235,22.9369412 L123.225235,13.5371674 L121.637452,13.5371674 L121.637452,11.55219 L134.56071,11.55219 L134.56071,13.5371674 L132.798719,13.5371674 L132.798719,22.465086 L135.056955,22.3431403 L135.056955,24.3012398 L132.798719,24.4012851 L132.798719,26.9312851 L130.641525,26.9312851 L130.641525,24.5262172 C129.715235,24.5754932 128.752113,24.6237738 127.752158,24.674543 C126.751706,24.7233213 125.812973,24.7740905 124.935959,24.8233665 C124.059443,24.8721448 123.286955,24.9169412 122.617,24.9607421 C121.946548,25.0010588 121.480167,25.0299276 121.215869,25.0473484 L121.066548,23.0120995 Z M119.801796,5.89639819 C120.066095,6.11291403 120.372701,6.36875113 120.719624,6.66689593 C121.066548,6.96354751 121.426412,7.27811765 121.798719,7.60861538 C122.170529,7.93911312 122.534376,8.2621448 122.890258,8.57571946 C123.24614,8.89028959 123.555733,9.17200905 123.821027,9.41988235 L122.083425,11.2047692 C121.835054,10.9568959 121.542385,10.67219 121.203923,10.3496561 C120.863968,10.0271222 120.512566,9.69164706 120.148719,9.34472398 C119.784873,8.99680543 119.429986,8.6678009 119.082566,8.35323077 C118.734647,8.03915837 118.437498,7.77436199 118.189127,7.55884163 L119.801796,5.89639819 Z M118.040303,28.2453122 L120.347317,28.2453122 L120.347317,10.53581 L118.040303,10.53581 L118.040303,28.2453122 Z" id="Fill-7" fill="#FFFFFF" mask="url(#mask-2)"></path>
                    <path d="M10.6697511,0.235828054 C6.90735294,0.235828054 4.52567873,0.250760181 2.27291855,2.50352036 C0.0131900452,4.76324887 -0.000248868778,7.15736652 -0.000248868778,10.9063258 L-0.000248868778,24.1715294 C-0.000248868778,27.9314389 0.0141855204,30.3160995 2.26794118,32.568362 C4.52567873,34.8295837 6.92079186,34.8415294 10.6697511,34.8415294 L23.9334615,34.8415294 C27.6948643,34.8415294 30.0775339,34.8280905 32.3317873,32.5753303 C34.5895249,30.3160995 34.6049548,27.919991 34.6049548,24.1715294 L34.6049548,10.9063258 C34.6049548,7.14591855 34.5895249,4.76324887 32.3367647,2.50949321 C30.0765385,0.249764706 27.6834163,0.235828054 23.9334615,0.235828054 L10.6697511,0.235828054 Z" id="Fill-8" fill="#E10000" mask="url(#mask-2)"></path>
                    <path d="M25.8381041,20.0291584 C25.8485566,19.9111946 25.8759321,19.8056742 25.9262036,19.7076199 C26.1103665,19.6190226 26.3154344,19.4687059 26.539914,19.2531855 C26.6379683,19.0983891 26.7658869,18.9814208 26.9196878,18.9017828 C27.1058416,18.755448 27.3109095,18.5882081 27.5348914,18.4020543 C27.6224932,18.2761267 27.7205475,18.1795656 27.8285566,18.1098824 C28.042086,17.9849502 28.1695068,17.8216923 28.2083303,17.6275747 C28.2177873,17.4225068 28.1097783,17.2906063 27.8867919,17.2313756 C27.8534434,17.222914 27.8195973,17.2179367 27.7842579,17.2179367 C27.6633077,17.2179367 27.5254344,17.2716923 27.3746199,17.3797014 C27.1302308,17.5932308 26.871905,17.7838643 26.5981493,17.9496109 C26.4806833,18.0173032 26.3886018,18.1098824 26.3204118,18.2268507 C26.2039412,18.2955385 26.0133077,18.4294299 25.7485113,18.6235475 C25.419009,18.8380724 25.1407738,19.0142715 24.9157964,19.1506516 C24.7873801,19.2188416 24.6231267,19.3273484 24.4185566,19.4726878 C24.3005928,19.5901538 24.1696878,19.6842262 24.0228552,19.7509231 C23.8675611,19.8201086 23.7401403,19.9111946 23.6430814,20.0291584 C23.4867919,20.1555837 23.1353891,20.3223258 22.5898688,20.5268959 C22.3554344,20.5667149 22.1802308,20.623457 22.0627647,20.703095 C21.8865656,20.8200633 21.5744842,20.9086606 21.1255249,20.9654027 C20.8632172,20.9763529 20.6427195,21.0684344 20.4680136,21.2441357 C20.2823575,21.4312851 20.2042127,21.6054932 20.2345747,21.7707421 C20.29281,22.0061719 20.4147557,22.1813756 20.6004118,22.2988416 C20.7457511,22.385448 20.9548009,22.4153122 21.2280588,22.385448 C21.4425837,22.3769864 21.6685566,22.294362 21.9024932,22.1360814 C22.1055701,21.9907421 22.2529005,21.922552 22.341,21.9344977 C22.4967919,21.922552 22.7750271,21.8205158 23.1752081,21.6259005 C23.4768371,21.4994751 23.6918597,21.385991 23.8182851,21.2884344 C23.9745747,21.1321448 24.119914,21.0246335 24.2577873,20.9654027 C24.501181,20.8688416 24.671905,20.7702896 24.7694615,20.6752217 C24.8670181,20.5478009 24.9824932,20.4392941 25.1208643,20.3511946 C25.1313167,20.3417376 25.1407738,20.3357647 25.1492353,20.3357647 C25.1601855,20.3282986 25.1850724,20.3223258 25.2229005,20.3223258 C25.3503213,20.312371 25.4478778,20.3019186 25.5155701,20.293457 C25.6046652,20.2835023 25.6862941,20.2835023 25.7644389,20.293457 C25.7743937,20.2835023 25.7992805,20.1959005 25.8381041,20.0291584 M24.2124932,12.3714661 C24.6231267,12.274905 24.950638,12.2549955 25.1940317,12.312733 C25.4369276,12.4117828 25.7012262,12.4048145 25.9844389,12.2982986 C26.2178778,12.2301086 26.4876516,12.2355837 26.7887828,12.312733 C26.9460679,12.3819186 27.1118145,12.3764434 27.2860226,12.2982986 C27.4134434,12.2301086 27.4950724,12.0942262 27.5348914,11.8891584 C27.5254344,11.6751312 27.4333529,11.5044072 27.2581493,11.3769864 C27.082448,11.2804253 26.8614525,11.264 26.5981493,11.3316923 C26.3841222,11.3914208 26.1357511,11.3809683 25.8520407,11.303819 C25.6843032,11.2709683 25.5145747,11.2555385 25.3438507,11.2555385 C25.1492353,11.2555385 24.9541222,11.2779367 24.7550271,11.3182534 C24.4240317,11.4163077 24.1542579,11.4312398 23.9506833,11.3630498 C23.7366561,11.2938643 23.5639412,11.3232308 23.4370181,11.4501538 C23.3105928,11.5775747 23.2369276,11.7278914 23.2180136,11.9035928 C23.2090543,12.0892489 23.281724,12.2470317 23.4370181,12.3714661 C23.6520407,12.4715113 23.9118597,12.4715113 24.2124932,12.3714661 M19.7074706,17.2030045 C19.7169276,17.2706968 19.8194615,17.3344072 20.0135792,17.3931403 C20.2574706,17.4618281 20.4968824,17.4508778 20.7318145,17.3637738 C20.799009,17.3344072 20.8915882,17.3249502 21.009552,17.3344072 C21.1066109,17.3448597 21.2469729,17.304543 21.432629,17.2174389 C21.6088281,17.1014661 21.8148914,17.0362624 22.0483303,17.0273032 C22.320095,17.0178462 22.5261584,16.9581176 22.6620407,16.8516018 C22.8193258,16.7530498 22.980095,16.6679367 23.1453439,16.5887964 C23.3603665,16.5211041 23.5514977,16.3976652 23.7177421,16.2209683 C23.8133077,16.124905 23.9307738,16.0517376 24.0661584,16.0014661 C24.1846199,15.9641357 24.2767014,15.8700633 24.3458869,15.724724 C24.4130814,15.6266697 24.4912262,15.5430498 24.5793258,15.4763529 C24.7550271,15.3474389 24.8864299,15.2175294 24.9745294,15.0801538 C25.0631267,14.9238643 25.1313167,14.7591131 25.1790995,14.5834118 C25.3348914,14.5435928 25.4807285,14.5530498 25.6186018,14.6127783 C25.8027647,14.6998824 26.0023575,14.6909231 26.2178778,14.5834118 C26.4030362,14.5231855 26.5852081,14.533638 26.7594163,14.6127783 C26.9460679,14.6695204 27.1446652,14.6605611 27.3601855,14.5834118 C27.5443484,14.5435928 27.7698235,14.533638 28.0316335,14.5530498 C28.4143937,14.5913756 28.7205023,14.5435928 28.9549367,14.4072127 C29.2864299,14.2792941 29.5238507,14.1040905 29.6706833,13.8786154 C29.8573348,13.6949502 29.9538959,13.3973032 29.9648462,12.9861719 L29.9648462,12.1096561 C29.9648462,11.834905 29.9255249,11.6353122 29.8458869,11.5083891 C29.7876516,11.3809683 29.7448462,11.2306516 29.7159774,11.0539548 C29.7249367,10.6940905 29.6667014,10.4452217 29.5397783,10.3083439 C29.4422217,10.2197466 29.3879683,10.1177104 29.3780136,10.0012398 C29.3690543,9.88427149 29.242629,9.75137557 28.9982398,9.6060362 C28.7827195,9.42933937 28.5731719,9.33775566 28.3681041,9.3278009 C28.1839412,9.33775566 28.042086,9.30838914 27.9440317,9.2401991 C27.5548009,9.05454299 27.1058416,8.99481448 26.5981493,9.06549321 C26.2671538,9.10332127 25.9490995,9.08341176 25.6474706,9.00427149 C25.4598235,8.9739095 25.2209095,8.95947511 24.9277421,8.95947511 C24.8545747,8.95947511 24.7769276,8.95947511 24.6957964,8.96096833 C24.3747557,8.96096833 24.0860679,9.01074208 23.8332172,9.10730317 C23.6480588,9.1461267 23.4723575,9.17300452 23.3071086,9.18246154 C23.0323575,9.19092308 22.8038959,9.27404525 22.6182398,9.42933937 C22.462448,9.54680543 22.3887828,9.7120543 22.4002308,9.9280724 C22.4002308,10.1435928 22.5395973,10.2889321 22.8238054,10.3670769 C23.1543032,10.4253122 23.4962489,10.3710588 23.8481493,10.2063077 C24.2672443,10.0012398 24.7231719,9.94748416 25.2084661,10.0440452 C25.5693258,10.084362 26.0232624,10.0978009 26.5692805,10.0883439 C27.3601855,10.1271674 27.8031719,10.2097919 27.901724,10.3362172 C27.9679231,10.3964434 28.0565204,10.4452217 28.1645294,10.482552 C28.2332172,10.5228688 28.2864751,10.6010136 28.3262941,10.7169864 C28.3347557,10.7767149 28.3979683,10.8787511 28.5154344,11.0255837 C28.5542579,11.142552 28.5776516,11.2555385 28.5886018,11.3630498 C28.5886018,11.5178462 28.622448,11.6935475 28.6911357,11.8891584 C28.7792353,12.1036833 28.5696878,13.0936833 28.442267,13.1932308 C28.2864751,13.3763982 28.0669729,13.4505611 27.7842579,13.4117376 C27.4527647,13.4022805 27.1541222,13.4366244 26.8903213,13.5142715 C26.6280136,13.6123258 26.3248914,13.6217828 25.9844389,13.543638 C25.4478778,13.4157195 24.8953891,13.4366244 24.3309548,13.6028688 C23.8909548,13.7287964 23.492267,13.7372579 23.1309095,13.6302443 C22.8855249,13.562552 22.7068371,13.4261719 22.5898688,13.2216018 C22.4918145,13.0936833 22.4136697,12.874181 22.3554344,12.5625973 C22.3166109,12.3182081 22.331543,11.9623258 22.4002308,11.4949502 C22.4380588,11.1037285 22.4236244,10.8210136 22.3554344,10.6448145 C22.3166109,10.4984796 22.2529005,10.3864887 22.1643032,10.3083439 C22.0762036,10.2695204 21.9746652,10.2401538 21.8576968,10.2197466 C21.760638,10.2301991 21.6685566,10.2695204 21.5794615,10.3362172 C21.4804118,10.4063982 21.3987828,10.512914 21.3305928,10.6592489 C21.2330362,10.8633213 21.1902308,11.1007421 21.2006833,11.3630498 C21.2091448,11.4899729 21.2041674,11.6119186 21.1842579,11.7278914 C21.1459321,11.9035928 21.1509095,12.0802896 21.2006833,12.2549955 C21.2395068,12.5471674 21.2629005,12.9224615 21.2723575,13.3813756 C21.242991,13.6849955 21.3012262,13.8786154 21.4485566,13.9677104 C21.6342127,14.0946335 21.741724,14.235991 21.7695973,14.3907873 C21.8387828,14.5485701 22.0428552,14.6695204 22.3838054,14.7591131 C22.7068371,14.8561719 22.940276,14.875086 23.0876063,14.8163529 C23.3021312,14.7202896 23.5295973,14.7098371 23.7744842,14.7879819 C23.7177421,14.8561719 23.6575158,14.9482534 23.5987828,15.0652217 C23.4514525,15.2409231 23.2677873,15.383276 23.04281,15.4897919 C22.8855249,15.5201538 22.7401855,15.5888416 22.6052986,15.6958552 C22.4569729,15.8222805 22.291724,15.8999276 22.1055701,15.9278009 C21.9209095,15.9382534 21.7551629,16.0014661 21.6088281,16.1199276 C21.451543,16.2080271 21.2818145,16.2612851 21.0976516,16.2797014 C20.9105023,16.2797014 20.7552081,16.2657647 20.6287828,16.2363982 C20.442629,16.1980724 20.2574706,16.2030498 20.0733077,16.2508326 C19.8966109,16.3095656 19.7647104,16.3822353 19.6781041,16.4708326 C19.5790543,16.5887964 19.5412262,16.7236833 19.5601403,16.8814661 C19.5695973,16.9780271 19.5944842,17.0407421 19.6338054,17.0711041 C19.672629,17.0805611 19.6970181,17.1248597 19.7074706,17.2030045 M31.2519955,18.0675747 C31.2913167,17.9779819 31.2863394,17.8948597 31.2365656,17.8177104 C31.1678778,17.7281176 31.1260679,17.6275747 31.1051629,17.5101086 C31.1141222,17.3533213 31.0718145,17.2174389 30.9732624,17.1014661 C30.8856606,16.9153122 30.8124932,16.7689774 30.7537602,16.6619638 C30.7438054,16.5141357 30.6855701,16.4016471 30.5785566,16.3244977 C30.3346652,16.1383439 30.1440317,15.9671222 30.0081493,15.8118281 C29.9399593,15.6854027 29.1390995,15.2797466 28.9235792,15.1239548 C28.7986471,15.0368507 28.6861584,15.0015113 28.5886018,15.0214208 C28.4333077,15.0313756 28.2964299,15.0079819 28.1784661,14.9482534 C28.0510452,14.9397919 27.9500045,14.9482534 27.8703665,14.9786154 C27.7553891,15.0164434 27.5826742,14.9985249 27.3601855,14.9188869 C27.1446652,14.8800633 26.9460679,14.8561719 26.7594163,14.844724 C26.7380136,14.8442262 26.7176063,14.8442262 26.6947104,14.8442262 C26.5259774,14.8442262 26.3507738,14.875086 26.1596425,14.9333213 C25.9461131,15.0214208 25.8321312,15.1677557 25.8226742,15.373819 C25.8226742,15.5888416 25.8903665,15.7346787 26.0277421,15.8118281 L26.0426742,15.8257647 C25.8570181,15.973095 25.6574253,16.1044977 25.4429005,16.2209683 C25.3458416,16.2906516 25.2567466,16.3682986 25.1790995,16.4568959 C25.0820407,16.525086 24.910819,16.6420543 24.6669276,16.8082986 C24.3652986,16.9924615 24.1064751,17.1482534 23.8909548,17.2751765 C23.7640317,17.3344072 23.6082398,17.4274842 23.4230814,17.5534118 C23.3260226,17.6509683 23.2090543,17.7355837 23.0726742,17.8027783 C22.9158869,17.8615113 22.7944389,17.9381629 22.7068371,18.0372127 C22.5605023,18.1641357 22.2374706,18.3104706 21.741724,18.4772127 C21.5271991,18.5160362 21.369914,18.5653122 21.2723575,18.6235475 C21.1165656,18.7201086 20.8288733,18.7887964 20.4082851,18.8276199 C20.1748462,18.8380724 19.9752534,18.9211946 19.8100045,19.0784796 C19.6338054,19.2531855 19.5601403,19.4094751 19.5900045,19.5458552 C19.6288281,19.7613756 19.7358416,19.9216471 19.911543,20.0291584 C20.0389638,20.1172579 20.2281041,20.1525973 20.4819502,20.1316923 C20.6865204,20.122733 20.8915882,20.0480724 21.0976516,19.9111946 C21.2818145,19.7867602 21.4137149,19.7270317 21.4918597,19.7364887 C21.6381946,19.7364887 21.8910452,19.6538643 22.2529005,19.4886154 C22.5261584,19.3701538 22.7247557,19.2735928 22.8526742,19.1959457 C22.999009,19.0481176 23.1309095,18.9510588 23.2478778,18.9017828 C23.4633982,18.833095 23.6186923,18.7454932 23.7177421,18.6384796 C23.8133077,18.5205158 23.9252986,18.4324163 24.0527195,18.374181 C24.209009,18.2855837 24.3603213,18.1701086 24.5066561,18.0237738 C24.6032172,17.9262172 24.7017692,17.8520543 24.7993258,17.8027783 C24.9556154,17.714181 25.1407738,17.5782986 25.3548009,17.3931403 C25.4523575,17.2657195 25.5693258,17.164181 25.7062036,17.084543 C25.8903665,16.9581176 26.0819955,16.8117828 26.2766109,16.6455385 C26.3448009,16.5494751 26.4324027,16.4653575 26.539914,16.3976652 C26.7255701,16.2797014 26.8425385,16.1478009 26.8903213,16.0014661 L26.9196878,16.0014661 C27.0182398,16.0313303 27.1586018,16.0228688 27.3442579,15.973095 C27.440819,15.9342715 27.6170181,15.9382534 27.8703665,15.9875294 C27.9385566,15.9875294 27.9987828,15.9974842 28.0470633,16.0178914 C28.0565204,16.0462624 28.0809095,16.0910588 28.1192353,16.1478009 C28.1884208,16.2951312 28.252629,16.4653575 28.3118597,16.6619638 C28.34919,16.8481176 28.3979683,16.9456742 28.4562036,16.9551312 C28.5154344,16.9456742 28.5940769,16.9287511 28.6911357,16.9108326 C28.7792353,16.8998824 28.8952081,16.8814661 29.0425385,16.8516018 C29.109733,16.8421448 29.212267,16.8316923 29.3496425,16.8212398 C29.3879683,16.8316923 29.4327647,16.8520995 29.4810452,16.8814661 C29.7538054,17.1248597 29.9444389,17.4025973 30.0514525,17.714181 C30.1410452,17.8908778 30.1440317,18.1830498 30.0668824,18.5936833 C29.9494163,18.9844072 29.802086,19.2696109 29.6263846,19.4443167 C29.5586923,19.5125068 29.4810452,19.6105611 29.3939412,19.7364887 C29.1505475,20.0396109 28.9235792,20.2342262 28.7205023,20.3223258 C28.631905,20.3322805 28.5647104,20.375086 28.5154344,20.4532308 C28.3880136,20.5801538 28.0908643,20.6881629 27.6224932,20.7757647 C27.2621312,20.873819 26.9888733,20.8942262 26.8032172,20.8344977 C26.7355249,20.8344977 26.6673348,20.8145882 26.5981493,20.7757647 C26.471724,20.6797014 26.3592353,20.6010588 26.2621765,20.5418281 C26.0476516,20.4258552 25.872448,20.414905 25.7345747,20.5124615 C25.6474706,20.57219 25.6081493,20.6831855 25.6186018,20.8489321 C25.6280588,21.0062172 25.6862941,21.1575294 25.7938054,21.3028688 C25.8520407,21.3720543 25.8903665,21.4467149 25.9112715,21.5228688 C25.9202308,21.6209231 25.969009,21.7080271 26.0576063,21.7861719 C26.1452081,21.8832308 26.2069276,21.9857647 26.2472443,22.0927783 C26.3054796,22.1903348 26.4363846,22.2550407 26.6434434,22.284905 C26.7405023,22.294362 26.871905,22.3282081 27.0371538,22.385448 C27.1645747,22.4153122 27.3502308,22.3804706 27.5941222,22.284905 C27.8380136,22.1858552 28.0510452,22.1176652 28.2367014,22.0793394 C28.4522217,22.0405158 28.8618597,21.8155385 29.4671086,21.4063982 C29.7682398,21.2207421 29.9937149,21.0291131 30.1410452,20.8344977 C30.1977873,20.7070769 30.2614977,20.6209683 30.32919,20.57219 C30.4167919,20.5612398 30.5830362,20.4089321 30.8269276,20.1172579 C31.012086,19.825086 31.1051629,19.5951312 31.1051629,19.4298824 C31.1051629,19.3019638 31.1141222,19.2009231 31.1355249,19.1222805 C31.2614525,18.7887964 31.2913167,18.5712851 31.2231267,18.4622805 C31.18281,18.3049955 31.1927647,18.175086 31.2519955,18.0675747 M12.7640317,12.7278462 C12.7341674,12.6631403 12.7082851,12.5944525 12.6868824,12.5212851 C12.6550271,12.3630045 12.5873348,12.2062172 12.4872896,12.0464434 C12.3817692,11.9424163 12.2533529,11.8861719 12.0970633,11.8742262 C12.0726742,11.872733 12.0512715,11.872733 12.0288733,11.872733 C11.8566561,11.872733 11.7665656,11.9105611 11.7566109,11.984724 C11.7262489,12.0464434 11.6839412,12.0952217 11.6316787,12.1275747 C11.591362,12.1380271 11.5644842,12.2316018 11.5550271,12.4117828 C11.5863846,12.5800181 11.6013167,12.6944977 11.6013167,12.7592036 C11.6117692,12.853276 11.6675158,13.0215113 11.7720407,13.2644072 C11.8033982,13.4211946 11.9273348,13.5754932 12.1438507,13.7213303 C12.3001403,13.8786154 12.4230814,13.9383439 12.5166561,13.8970317 C12.61919,13.864181 12.7082851,13.7591584 12.7814525,13.5794751 C12.8232624,13.4425973 12.8362036,13.3325973 12.8277421,13.2489774 C12.8167919,13.1748145 12.7943937,13.063819 12.7640317,12.9164887 C12.7754796,12.8423258 12.7754796,12.7786154 12.7640317,12.7278462 M16.0371538,13.122552 C15.9953439,13.2902896 15.979914,13.4888869 15.9903665,13.7213303 L15.9903665,13.9428235 C15.9490543,14.0060362 15.8977873,14.0687511 15.8340769,14.1314661 C15.8042127,14.142914 15.7773348,14.1643167 15.7574253,14.1961719 C15.7454796,14.1862172 15.7325385,14.1792489 15.7121312,14.1792489 C15.5563394,14.1911946 15.3856154,14.1862172 15.1989638,14.1633213 C15.0023575,14.1314661 14.8381041,14.124 14.7042127,14.1314661 C14.692267,14.1016018 14.6818145,14.0861719 14.6728552,14.0861719 C14.6424932,14.044362 14.6096425,14.0060362 14.5792805,13.9751765 C14.589733,13.9109683 14.6006833,13.852733 14.6111357,13.8009683 C14.6195973,13.5376652 14.6818145,13.3375747 14.7972896,13.2006968 C14.8988281,13.0742715 14.9814525,12.9373937 15.0436697,12.7910588 C15.0859774,12.6531855 15.1223122,12.5008778 15.1521765,12.3316471 C15.162629,12.1111493 15.1262941,11.9105611 15.0436697,11.7328688 C14.9714977,11.5944977 14.8779231,11.5098824 14.7659321,11.4800181 C14.6424932,11.4481629 14.4762489,11.5153575 14.2686923,11.6860814 C14.0830362,11.8219638 13.990457,12.0116018 13.990457,12.2525068 C13.9795068,12.3799276 13.9327195,12.5377104 13.850095,12.7278462 C13.8401403,12.8005158 13.8401403,12.9020543 13.850095,13.0269864 C13.8814525,13.1937285 13.8963846,13.3266244 13.8963846,13.4211946 C13.8655249,13.5580724 13.8306833,13.6640905 13.7878778,13.7372579 C13.7460679,13.7805611 13.721181,13.8382986 13.7107285,13.9109683 C13.6714072,13.953276 13.6340769,13.9955837 13.6032172,14.0388869 C13.561905,14.0816923 13.4882398,14.1314661 13.3842127,14.1961719 L13.3697783,14.1961719 C13.1109548,14.1862172 12.9243032,14.1996561 12.810819,14.2424615 C12.7082851,14.3161267 12.5733982,14.3435023 12.4076516,14.3211041 C12.2732624,14.2897466 12.1388733,14.294724 12.0054796,14.3375294 C11.8412262,14.3703801 11.6839412,14.3703801 11.5386018,14.3375294 C11.4360679,14.3280724 11.3176063,14.3435023 11.1842127,14.3848145 C11.1727647,14.3753575 11.1573348,14.3589321 11.1374253,14.3375294 C11.0020407,14.2424615 10.8407738,14.1175294 10.6551176,13.9577557 L10.6252534,13.9428235 L10.6252534,13.9109683 C10.5003213,13.712371 10.4485566,13.4485701 10.4699593,13.122552 C10.459009,12.9836833 10.4276516,12.7492489 10.3763846,12.4117828 C10.3659321,12.2734118 10.4485566,12.0270317 10.6252534,11.6676652 C10.6347104,11.6273484 10.6446652,11.5944977 10.6551176,11.575086 C10.7895068,11.4690679 11.0343937,11.3431403 11.3833077,11.1943167 C11.3947557,11.1838643 11.4196425,11.1734118 11.4619502,11.1639548 C11.5346199,11.152009 11.6162489,11.152009 11.710819,11.1639548 C11.7197783,11.1649502 11.7307285,11.1649502 11.7426742,11.1649502 C11.8347557,11.1649502 11.9696425,11.1271222 12.1438507,11.0539548 C12.5589638,10.852371 12.9865204,10.805086 13.4324932,10.9111041 C13.7719502,10.9842715 14.0467014,10.9892489 14.2542579,10.9270317 C14.6365204,10.7896561 15.1118597,10.9728235 15.680276,11.4800181 C15.9077421,11.7433213 16.0371538,12.0220543 16.0685113,12.3167149 C16.0789638,12.6755837 16.0675158,12.942371 16.0371538,13.122552 M12.6241674,16.2657647 C12.6147104,16.2961267 12.6092353,16.3274842 12.6092353,16.3593394 C12.5375611,16.422552 12.4285566,16.494724 12.281724,16.5808326 L12.2533529,16.5808326 C12.1493258,16.5494751 12.040819,16.5494751 11.9273348,16.5808326 C11.8033982,16.61219 11.6839412,16.61219 11.5714525,16.5808326 C11.4674253,16.5688869 11.331543,16.5972579 11.1682851,16.6604706 C10.971181,16.7017828 10.8153891,16.7913756 10.7024027,16.9287511 C10.6919502,16.7600181 10.7178326,16.6057195 10.7800498,16.4708326 C10.821362,16.344905 10.8462489,16.174181 10.8571991,15.9641357 C10.8875611,15.8914661 10.9288733,15.8267602 10.9811357,15.7764887 C11.0219502,15.7018281 11.1005928,15.6286606 11.2140769,15.5535023 C11.2250271,15.5430498 11.2553891,15.5271222 11.3071538,15.5062172 C11.4106833,15.5062172 11.5231719,15.4957647 11.6481041,15.4763529 C11.7521312,15.4644072 11.891,15.4126425 12.0662036,15.3165792 L12.082629,15.3165792 C12.2374253,15.3474389 12.37281,15.4016923 12.4872896,15.4763529 C12.5266109,15.48581 12.562448,15.5126878 12.5948009,15.5535023 L12.5948009,15.9497014 C12.6241674,16.0437738 12.6351176,16.1478009 12.6241674,16.2657647 M17.3248009,20.1043167 C17.3138507,19.7250407 17.2098235,19.2292941 17.0137149,18.6175747 C16.9101855,18.3861267 16.8892805,18.0287511 16.9519955,17.543457 C16.9933077,17.2607421 16.9778778,16.9178009 16.9057059,16.5176199 C16.8643937,16.3493846 16.8643937,16.185629 16.9057059,16.0288416 C16.9470181,15.8387059 16.9519955,15.675448 16.9201403,15.5380724 C16.8803213,15.3693394 16.8743484,15.2384344 16.9057059,15.1438643 C16.9778778,14.9751312 17.0137149,14.7596109 17.0137149,14.4963077 C16.9828552,14.105086 16.9982851,13.7322805 17.0605023,13.372914 C17.0918597,13.2375294 17.0918597,13.122552 17.0605023,13.0269864 C17.030638,12.9339095 17.0390995,12.8224163 17.0918597,12.6944977 C17.121724,12.6531855 17.1421312,12.574543 17.1540769,12.4595656 C17.1630362,12.3535475 17.2063394,12.2584796 17.2780136,12.1753575 C17.3501855,12.1111493 17.4019502,12.0116018 17.4323122,11.8742262 C17.4741222,11.6751312 17.4741222,11.4844977 17.4323122,11.3063077 C17.339733,10.9787964 17.1630362,10.742371 16.9057059,10.5950407 C16.7504118,10.5218733 16.6473801,10.4268054 16.5961131,10.3098371 C16.5548009,10.2366697 16.4676968,10.1625068 16.330819,10.0893394 C16.2257964,10.0470317 16.0938959,10.0316018 15.9286471,10.042552 C15.8042127,10.0530045 15.6862489,10.0216471 15.5717692,9.94748416 C15.4995973,9.88427149 15.4065204,9.8539095 15.2925385,9.8539095 C15.1989638,9.86336652 15.0800045,9.85739367 14.9351629,9.83599095 C14.70919,9.794181 14.4339412,9.79915837 14.1138959,9.8539095 C13.9182851,9.89372851 13.721181,9.89024434 13.5250724,9.83599095 C13.4558869,9.8140905 13.381724,9.80065158 13.3035792,9.80065158 C13.1726742,9.80065158 13.0288281,9.83549321 12.8725385,9.9001991 C12.7814525,9.94200905 12.7023122,9.95743891 12.6405928,9.94748416 C12.5375611,9.91562896 12.3767919,9.95395475 12.1607738,10.0584796 C12.0662036,10.0893394 11.9372896,10.084362 11.7720407,10.042552 C11.5445747,9.99974661 11.3116335,10.0216471 11.0747104,10.1062624 C10.950276,10.1157195 10.8571991,10.1201991 10.7939864,10.1201991 C10.6919502,10.1107421 10.6197783,10.1107421 10.5784661,10.1201991 C10.569009,10.1201991 10.569009,10.1271674 10.5784661,10.1366244 C10.39281,9.99974661 10.1797783,9.99526697 9.9428552,10.1201991 C9.78706335,10.1933665 9.62181448,10.4417376 9.44461991,10.8623258 C9.2589638,11.2206968 9.19276471,11.6154027 9.24452941,12.0464434 C9.25597738,12.4695204 9.3530362,12.8164434 9.54018552,13.0906968 C9.67308145,13.2798371 9.75670136,13.543638 9.78706335,13.8786154 C9.82937104,14.4599729 9.83833032,14.8472127 9.8169276,15.0482986 C9.78706335,15.2702896 9.79353394,15.5126878 9.83434842,15.7764887 C9.84380543,15.9327783 9.82290045,16.0910588 9.77063801,16.2473484 C9.761181,16.3244977 9.74475566,16.4494299 9.7268371,16.6286154 C9.79801357,16.8595656 9.78706335,17.0969864 9.69348869,17.3378914 C9.52823982,17.7281176 9.44461991,18.1337738 9.44461991,18.5548597 C9.44461991,18.6598824 9.41525339,18.7808326 9.3530362,18.9177104 C9.31172398,19.1078462 9.24452941,19.3263529 9.15095475,19.5672579 C9.10964253,19.6080724 9.07828507,19.6882081 9.05937104,19.8031855 C9.05937104,19.9405611 8.97077376,20.115267 8.7950724,20.32581 C8.69154299,20.4950407 8.60244796,20.6209683 8.53127149,20.705086 C8.48946154,20.8106063 8.44814932,20.9310588 8.4068371,21.0679367 C8.39738009,21.20581 8.4068371,21.3426878 8.4371991,21.4795656 C8.47851131,21.6159457 8.56661086,21.7359005 8.70199548,21.8414208 C8.85579638,21.9145882 9.00163348,21.9474389 9.13602262,21.9364887 C9.29131674,21.9051312 9.46253846,21.8085701 9.64869231,21.6527783 C9.77063801,21.514905 9.85873756,21.3685701 9.91000452,21.2092941 C9.95280995,20.9783439 10.0503665,20.6667602 10.2056606,20.2780271 C10.2469729,20.1416471 10.2683756,20.0366244 10.2683756,19.9629593 C10.2683756,19.834543 10.2937602,19.7170769 10.3460226,19.5986154 C10.3863394,19.4940905 10.4077421,19.3940452 10.4077421,19.2969864 C10.3977873,19.2034118 10.4077421,19.1178009 10.4395973,19.0446335 C10.4485566,18.9510588 10.459009,18.8549955 10.4699593,18.7599276 C10.459009,18.6344977 10.4898688,18.4871674 10.5635339,18.3189321 C10.6043484,18.1163529 10.6252534,17.9496109 10.6252534,17.812733 C10.6143032,17.7813756 10.6083303,17.754 10.6083303,17.7325973 C10.6705475,17.774905 10.7501855,17.8216923 10.8407738,17.8759457 C10.9144389,17.8868959 10.9970633,17.8918733 11.0901403,17.8918733 C11.1214977,17.922733 11.1518597,17.9700181 11.1842127,18.0337285 C11.2140769,18.0750407 11.2389638,18.1337738 11.2603665,18.2079367 L11.2603665,18.3333665 C11.249914,18.4294299 11.2344842,18.5394299 11.2140769,18.6648597 C11.1822217,18.9296561 11.2090995,19.2775747 11.2912262,19.7101086 C11.3947557,20.0366244 11.5550271,20.2307421 11.7720407,20.293457 C11.8641222,20.32581 11.942267,20.35219 12.0054796,20.3725973 C12.0662036,20.3840452 12.1388733,20.3840452 12.2219955,20.3725973 C12.3553891,20.3093846 12.4549367,20.1988869 12.5166561,20.0406063 C12.5873348,19.883819 12.5589638,19.7618733 12.4230814,19.6777557 C12.3932172,19.6359457 12.3658416,19.58219 12.3459321,19.5194751 C12.3056154,19.4259005 12.281724,19.3139095 12.281724,19.1869864 L12.281724,18.8549955 C12.2732624,18.7808326 12.2787376,18.6872579 12.3001403,18.5712851 C12.3932172,18.3079819 12.4230814,18.0969412 12.3932172,17.9381629 L12.3777873,17.922733 C12.5315882,17.8187059 12.8232624,17.6917828 13.2438507,17.543457 L13.2617692,17.543457 C13.4270181,17.5867602 13.6032172,17.5812851 13.7878778,17.5275294 C14.0352534,17.4857195 14.2746652,17.4966697 14.5031267,17.5603801 C14.8216787,17.6663982 15.1063846,17.6703801 15.3552534,17.573819 C15.5717692,17.4702896 15.6738054,17.3224615 15.6648462,17.1343167 C15.6648462,16.9118281 15.5772443,16.7445882 15.4010452,16.6286154 C15.2467466,16.5225973 15.0859774,16.464362 14.9202308,16.4544072 C14.7659321,16.464362 14.589733,16.464362 14.392629,16.4544072 C14.2069729,16.422552 14.0467014,16.4120995 13.9113167,16.422552 C13.9028552,16.4120995 13.8914072,16.4016471 13.8814525,16.3897014 C13.7779231,16.3165339 13.6848462,16.2279367 13.6032172,16.122914 C13.6032172,16.0910588 13.6081946,16.0701538 13.6186471,16.0592036 C13.649009,15.9860362 13.6579683,15.9078914 13.649009,15.823276 C13.6380588,15.6854027 13.6340769,15.5594751 13.6340769,15.4444977 C13.6340769,15.4330498 13.6286018,15.4181176 13.6186471,15.3957195 C13.6579683,15.3524163 13.7107285,15.322552 13.7719502,15.3011493 C13.8157511,15.2702896 13.8914072,15.2424163 14.0043937,15.2230045 C14.1084208,15.2230045 14.2273801,15.2055837 14.3612715,15.174724 C14.6818145,15.112009 15.0023575,15.1279367 15.3243937,15.2230045 C15.3552534,15.2339548 15.3801403,15.2424163 15.4010452,15.2538643 C15.4642579,15.2961719 15.5563394,15.3802896 15.680276,15.5062172 C15.752448,15.5495204 15.8340769,15.6236833 15.9286471,15.7287059 C15.9381041,15.9168507 15.9580136,16.0746335 15.9903665,16.2015566 C16.0222217,16.434 16.0117692,16.6535023 15.9580136,16.8655385 C15.9176968,17.0228235 15.9077421,17.2393394 15.9286471,17.5120995 C15.9381041,17.744543 15.9381041,17.9187511 15.9286471,18.0337285 C15.9176968,18.1392489 15.9176968,18.2542262 15.9286471,18.3811493 C16.000819,18.8355837 16.0117692,19.2969864 15.9580136,19.7733213 C15.9286471,19.9311041 15.9545294,20.1690226 16.0371538,20.483095 C16.0675158,20.6105158 16.0675158,20.7319638 16.0371538,20.8469412 C16.0048009,20.942009 16.0048009,21.0311041 16.0371538,21.1152217 C16.0789638,21.2092941 16.0938959,21.3222805 16.0829457,21.4467149 C16.0739864,21.5840905 16.1367014,21.7627783 16.270095,21.9847692 C16.3940317,22.1535023 16.5438507,22.2416018 16.7190543,22.2520543 C16.9161584,22.2520543 17.0918597,22.1853575 17.2466561,22.0489774 C17.2879683,22.0061719 17.3292805,21.9265339 17.3705928,21.8085701 C17.381543,21.7359005 17.4109095,21.6423258 17.4636697,21.5263529 C17.5064751,21.3685701 17.5005023,21.1575294 17.4472443,20.8952217 C17.3870181,20.6742262 17.3452081,20.4089321 17.3248009,20.1043167 M5.22778733,16.9118281 C5.07299095,16.7445882 4.97443891,16.5654027 4.93362443,16.375267 C4.92366968,16.2702443 4.9848914,16.1547692 5.12027602,16.0288416 C5.22280995,15.9327783 5.28552489,15.7978914 5.30394118,15.6177104 C5.31588688,15.4912851 5.38855656,15.3847692 5.5229457,15.3011493 C5.7190543,15.174724 5.85891855,15.0119638 5.94054751,14.8113756 C5.98036652,14.6754932 6.07443891,14.594362 6.22077376,14.575448 C6.38552489,14.564 6.50946154,14.5226878 6.59357919,14.4485249 C6.59357919,14.4375747 6.59756109,14.4325973 6.6070181,14.4325973 C6.76380543,14.474905 6.8971991,14.5276652 7.01167873,14.5908778 C7.04104525,14.622733 7.06244796,14.6545882 7.07339819,14.6859457 C7.0828552,14.7173032 7.10873756,14.753638 7.15054751,14.7959457 C7.22172398,14.8701086 7.28045701,14.9646787 7.32226697,15.0801538 C7.3531267,15.174724 7.37751584,15.2384344 7.39891855,15.2702896 C7.47158824,15.3424615 7.51837557,15.4763529 7.53828507,15.6644977 C7.54923529,15.865086 7.52783258,16.0313303 7.47706335,16.1701991 C7.43575113,16.2762172 7.41434842,16.422552 7.41434842,16.61219 L7.41434842,16.6420543 C7.28991403,16.8117828 7.13412217,16.9392036 6.94846606,17.0228235 C6.76380543,17.0969864 6.61249321,17.1228688 6.49900905,17.1039548 C6.42584163,17.0701086 6.31783258,17.082552 6.17348869,17.1343167 C6.15009502,17.1442715 6.12371493,17.1482534 6.09534389,17.1482534 C6.04208597,17.1482534 5.9788733,17.1278462 5.90968778,17.084543 C5.84796833,17.0442262 5.74045701,17.0178462 5.58615837,17.0073937 C5.46023077,17.0073937 5.34027602,16.9765339 5.22778733,16.9118281 M6.20484615,18.3492941 C6.33923529,18.3079819 6.47909955,18.2870769 6.62344344,18.2870769 C6.99624887,18.2542262 7.28045701,18.1163529 7.47706335,17.8759457 C7.61095475,17.7067149 7.77670136,17.5603801 7.97280995,17.433457 C8.07633937,17.3582986 8.15398643,17.2906063 8.20376018,17.2278914 C8.2968371,17.1855837 8.38593213,17.1228688 8.4690543,17.0382534 C8.59299095,16.8814661 8.65968778,16.6853575 8.67113575,16.4544072 C8.6810905,16.3493846 8.65968778,16.2229593 8.60842081,16.0746335 C8.56661086,15.9696109 8.53575113,15.8068507 8.51484615,15.5873484 C8.50588688,15.4181176 8.45810407,15.2230045 8.37547964,15.0000181 C8.33416742,14.8651312 8.27742534,14.7740452 8.20376018,14.7317376 C8.13208597,14.6585701 8.07633937,14.5684796 8.03452941,14.4639548 C7.99271946,14.3375294 7.92054751,14.2534118 7.81751584,14.2116018 C7.77670136,14.2006516 7.73986878,14.1643167 7.71000452,14.1016018 C7.69855656,14.0901538 7.68810407,14.0816923 7.67715385,14.0687511 C7.66769683,13.9109683 7.65176923,13.7805611 7.63136199,13.674543 C7.6209095,13.6640905 7.61593213,13.6426878 7.61593213,13.6118281 C7.62688235,13.5496109 7.64679186,13.4888869 7.67715385,13.4386154 C7.68810407,13.342552 7.73986878,13.253457 7.8329457,13.1688416 C7.96833032,13.0319638 8.16443891,12.9209683 8.42226697,12.8363529 C8.52529864,12.8268959 8.61837557,12.7278462 8.70199548,12.5377104 C8.74231222,12.4117828 8.74231222,12.284362 8.70199548,12.1569412 C8.63878281,12.0220543 8.6348009,11.9105611 8.68557014,11.8269412 C8.72837557,11.7642262 8.69154299,11.6532308 8.57756109,11.4949502 C8.39190498,11.2420995 8.15398643,11.104724 7.86330769,11.083819 C7.75977828,11.083819 7.67715385,11.0693846 7.61593213,11.0375294 C7.52185973,10.9952217 7.44023077,11.0001991 7.36706335,11.0539548 C7.30633937,11.0962624 7.23765158,11.1206516 7.16597738,11.1316018 C7.03308145,11.1316018 6.94000452,11.1838643 6.88674661,11.2898824 C6.81606787,11.4586154 6.82004977,11.5696109 6.90217647,11.6208778 C7.09828507,11.7268959 7.200819,11.8219638 7.21276471,11.9055837 C7.24213122,11.9792489 7.22172398,12.0588869 7.15054751,12.1435023 C7.10873756,12.1848145 7.06842081,12.263457 7.02810407,12.3799276 C6.98529864,12.5377104 6.91262896,12.6487059 6.81009502,12.7119186 C6.76828507,12.7422805 6.73244796,12.7960362 6.7010905,12.8692036 C6.65928054,13.0070769 6.58163348,13.0802443 6.46864706,13.0906968 C6.3949819,13.1001538 6.31783258,13.1474389 6.23421267,13.2315566 C6.1431267,13.3375747 6.02366968,13.3530045 5.87833032,13.2798371 C5.8489638,13.2489774 5.77529864,13.2270769 5.66280995,13.215629 C5.53787783,13.2061719 5.46023077,13.1573937 5.42937104,13.0742715 C5.41941629,13.0319638 5.37909955,13.0001086 5.30394118,12.9792036 C5.23276471,12.9373937 5.13919005,12.8268959 5.02570588,12.6487059 C4.96398643,12.5108326 5.00181448,12.2997919 5.13471041,12.0165792 C5.17602262,11.7642262 5.23276471,11.6119186 5.30394118,11.5576652 C5.34674661,11.5472127 5.3930362,11.4730498 5.44430317,11.3371674 C5.48611312,11.2117376 5.54335294,11.1156742 5.61552489,11.0539548 C5.67724434,11.0216018 5.7190543,10.9459457 5.74045701,10.8304706 C5.74891855,10.7687511 5.79520814,10.683638 5.87833032,10.5791131 C5.94054751,10.5049502 6.00376018,10.4745882 6.06448416,10.4835475 C6.10579638,10.4835475 6.15805882,10.4586606 6.22077376,10.4054027 C6.29394118,10.34219 6.37557014,10.3227783 6.46864706,10.34219 C6.57217647,10.3531403 6.66475566,10.3247692 6.74787783,10.262552 C6.78869231,10.2207421 6.87231222,10.2048145 6.99624887,10.2157647 C7.09828507,10.2252217 7.23267421,10.1625068 7.39891855,10.0266244 C7.47158824,9.98531222 7.50145249,9.86784615 7.49299095,9.67820814 C7.48253846,9.47861538 7.3531267,9.28897738 7.10425792,9.10979186 C6.88674661,8.98485973 6.69611312,8.94255204 6.53086425,8.98485973 C6.46864706,8.99481448 6.37557014,8.97938462 6.25063801,8.93707692 C6.18991403,8.92065158 6.131181,8.91119457 6.07792308,8.91119457 C5.99679186,8.91119457 5.92511765,8.9301086 5.86339819,8.96893213 C5.80018552,9.01074208 5.72403167,9.03264253 5.63095475,9.03264253 C5.53787783,9.02069683 5.40846606,9.16852489 5.24321719,9.47413575 C5.18149774,9.60006335 5.12027602,9.67422624 5.05805882,9.69363801 C4.9848914,9.73793665 4.93362443,9.80513122 4.90176923,9.9001991 C4.89231222,9.97386425 4.8549819,10.0316018 4.79376018,10.072914 C4.72059276,10.1376199 4.66385068,10.2112851 4.62204072,10.294905 C4.59217647,10.3999276 4.55584163,10.4671222 4.51353394,10.5009683 C4.45280995,10.5636833 4.32339819,10.784181 4.12728959,11.1639548 C3.96204072,11.4909683 3.87742534,11.7069864 3.87742534,11.8105158 C3.8888733,11.8861719 3.85851131,11.9518733 3.78534389,12.0165792 C3.7231267,12.0588869 3.69774208,12.2316018 3.70769683,12.5377104 C3.71814932,12.6322805 3.75846606,12.7168959 3.83163348,12.7910588 C3.9048009,12.864724 3.9351629,12.9339095 3.92520814,12.9941357 C3.91376018,13.0906968 3.94959729,13.1573937 4.03321719,13.2006968 C4.09493665,13.2315566 4.1471991,13.2748597 4.18900905,13.3266244 C4.230819,13.433638 4.33833032,13.5167602 4.51353394,13.5794751 C4.58620362,13.5904253 4.65290045,13.6426878 4.71611312,13.7372579 C4.77733484,13.8109231 4.81366968,13.8900633 4.82461991,13.9751765 C4.89728959,14.142914 4.89231222,14.3161267 4.80919005,14.4963077 C4.67380543,14.6959005 4.60262896,14.8701086 4.59217647,15.0164434 C4.58122624,15.174724 4.52597738,15.2787511 4.42195023,15.334 C4.26615837,15.3957195 4.11086425,15.6122353 3.95457466,15.9820543 C3.85253846,16.1816471 3.81769683,16.3593394 3.84706335,16.5176199 C3.8888733,16.6739095 3.9048009,16.8117828 3.89385068,16.9287511 C3.88339819,17.0969864 4.00335294,17.3871674 4.25122624,17.7973032 C4.53095475,18.0287511 4.81964253,18.1337738 5.12027602,18.1128688 C5.30394118,18.102914 5.50104525,18.1546787 5.70760633,18.2706516 C5.86339819,18.3662172 6.02964253,18.3911041 6.20484615,18.3492941 M4.82461991,18.9346335 C4.7290543,18.8057195 4.61955204,18.742009 4.49561538,18.742009 C4.45679186,18.742009 4.41597738,18.7479819 4.37466516,18.7599276 C4.18900905,18.8246335 4.06009502,19.0033213 3.9869276,19.2969864 C3.94661086,19.4259005 3.86398643,19.5513303 3.73805882,19.6777557 C3.52154299,19.9405611 3.4130362,20.2411946 3.4130362,20.5786606 C3.38317195,20.8106063 3.32493665,21.0092036 3.24280995,21.1784344 C3.1810905,21.4004253 3.17511765,21.6159457 3.22787783,21.825991 C3.26869231,22.0151312 3.37769683,22.1355837 3.55240271,22.1903348 C3.73805882,22.2321448 3.89385068,22.2107421 4.01878281,22.1261267 C4.14172398,22.0614208 4.230819,21.9265339 4.2810905,21.7169864 C4.3448009,21.514905 4.41149774,21.3362172 4.48317195,21.1784344 C4.6071086,21.0420543 4.70566063,20.8837738 4.77733484,20.705086 C4.84950679,20.5368507 4.86045701,20.35219 4.80919005,20.1525973 C4.79873756,19.9525068 4.80421267,19.7578914 4.82461991,19.5672579 C4.9171991,19.3019638 4.9171991,19.0934118 4.82461991,18.9346335 M8.7169276,20.2625973 C8.75923529,20.1252217 8.7751629,20.0112398 8.76271946,19.9156742 C8.75376018,19.8201086 8.73235747,19.703638 8.70199548,19.5672579 C8.71145249,19.4940905 8.71145249,19.4259005 8.70199548,19.3616923 C8.67113575,19.2969864 8.65023077,19.223819 8.63878281,19.1416923 C8.60842081,18.9814208 8.53575113,18.8186606 8.42226697,18.6489321 C8.31873756,18.5115566 8.18434842,18.4438643 8.01909955,18.4438643 C7.99271946,18.4428688 7.96932579,18.442371 7.9469276,18.442371 C7.76575113,18.442371 7.66471041,18.4801991 7.64679186,18.5548597 C7.61593213,18.6175747 7.57561538,18.6708326 7.52185973,18.7126425 C7.48253846,18.7225973 7.45068326,18.8246335 7.43027602,19.0137738 C7.46113575,19.1825068 7.47706335,19.3019638 7.47706335,19.3766244 C7.47706335,19.4726878 7.53330769,19.6459005 7.64679186,19.8982534 C7.67715385,20.0674842 7.80158824,20.2362172 8.01909955,20.4044525 C8.18434842,20.5726878 8.31873756,20.6363982 8.42226697,20.593095 C8.52529864,20.5622353 8.62385068,20.4522353 8.7169276,20.2625973 M6.7010905,19.3766244 C6.6388733,19.2407421 6.53434842,19.1456742 6.39149774,19.0934118 C6.28299095,19.055086 6.19638462,19.0381629 6.13466516,19.0381629 C6.07244796,19.0381629 6.03461991,19.055086 6.01819457,19.0934118 C5.97738009,19.1357195 5.92511765,19.1665792 5.86339819,19.1869864 C5.82158824,19.1869864 5.77032127,19.2720995 5.70760633,19.4398371 C5.66828507,19.7992036 5.63095475,20.0515566 5.60009502,20.1988869 C5.56873756,20.3895204 5.59461991,20.7673032 5.67724434,21.3362172 C5.66828507,21.4949955 5.73299095,21.6781629 5.87833032,21.8897014 C5.98036652,22.0892941 6.08439367,22.1853575 6.18792308,22.1739095 C6.29394118,22.1739095 6.41190498,22.0992489 6.54629412,21.9514208 C6.61995928,21.8459005 6.66475566,21.7473484 6.6851629,21.6527783 C6.69611312,21.5776199 6.70656561,21.4686154 6.71602262,21.3222805 C6.82004977,21.0883439 6.86036652,20.8683439 6.83995928,20.6568054 C6.77923529,20.4258552 6.75185973,20.1735023 6.76380543,19.8982534 C6.77326244,19.7414661 6.75185973,19.5672579 6.7010905,19.3766244 M15.1377421,19.3298371 C14.9998688,19.2501991 14.8654796,19.2103801 14.732086,19.2103801 C14.6544389,19.2103801 14.5777873,19.2223258 14.5031267,19.2511946 C14.4294615,19.2935023 14.3045294,19.3188869 14.1303213,19.3298371 C13.9426742,19.3402896 13.8087828,19.3567149 13.7251629,19.3766244 C13.6544842,19.4089774 13.5554344,19.4368507 13.4324932,19.4567602 C13.2662489,19.4677104 13.1268824,19.5458552 13.011905,19.6931855 C12.9407285,19.8310588 12.9004118,19.9569864 12.8889638,20.0739548 C12.9004118,20.2411946 12.9765656,20.3725973 13.1214072,20.4676652 C13.4001403,20.5418281 13.6340769,20.5478009 13.8192353,20.483095 C13.8814525,20.4522353 13.9536244,20.4368054 14.0352534,20.4368054 C14.1084208,20.4368054 14.1756154,20.4318281 14.2373348,20.4213756 C14.2482851,20.4089321 14.3045294,20.414905 14.4090543,20.4368054 C14.760457,20.4776199 15.0342127,20.4368054 15.2303213,20.3093846 C15.3856154,20.21581 15.4582851,20.0465792 15.4458416,19.8031855 C15.4169729,19.58219 15.3129457,19.4259005 15.1377421,19.3298371" id="Fill-9" fill="#FFFFFF" mask="url(#mask-2)"></path>
                    <polygon id="Fill-10" fill="#FFFFFF" mask="url(#mask-2)" points="10.9793937 24.5472217 10.9793937 26.6486697 9.15518552 24.5472217 8.84111312 24.5472217 8.84111312 27.2534208 9.20495928 27.2534208 9.20495928 25.1693937 11.014733 27.2534208 11.3482172 27.2534208 11.3482172 24.5472217"></polygon>
                    <polygon id="Fill-11" fill="#FFFFFF" mask="url(#mask-2)" points="14.3089593 24.5472217 14.3089593 27.2489412 15.879819 27.2489412 15.879819 26.904009 14.6976923 26.904009 14.6976923 26.0638281 15.8056561 26.0638281 15.8056561 25.716905 14.6976923 25.716905 14.6976923 24.8906606 15.8439819 24.8906606 15.8439819 24.5472217"></polygon>
                    <polygon id="Fill-12" fill="#FFFFFF" mask="url(#mask-2)" points="21.7745747 24.5472217 21.0379231 26.4117466 20.2823575 24.5472217 19.9165204 24.5472217 19.1654344 26.4117466 18.4198235 24.5472217 18.0295973 24.5472217 19.1216335 27.264371 19.2032624 27.264371 20.0971991 25.0638733 20.9826742 27.264371 21.0672896 27.264371 22.1603213 24.5472217"></polygon>
                    <path d="M25.1381855,26.1526742 L24.8440226,25.9749819 C24.6583665,25.8614977 24.5274615,25.7514977 24.4503122,25.6419955 C24.3701765,25.5314977 24.3313529,25.4085566 24.3313529,25.2647104 C24.3313529,25.0521765 24.4055158,24.8794615 24.5543394,24.7445747 C24.7011719,24.6121765 24.8937964,24.5474706 25.1307195,24.5474706 C25.3556968,24.5474706 25.5637511,24.60919 25.7523937,24.7366109 L25.7523937,25.1771086 C25.5567828,24.9884661 25.347733,24.8943937 25.1212624,24.8943937 C24.9953348,24.8943937 24.8923032,24.9247557 24.8106742,24.9839864 C24.7300407,25.0412262 24.689724,25.1158869 24.689724,25.2069729 C24.689724,25.2890995 24.7190905,25.3647557 24.7783213,25.4359321 C24.8385475,25.5066109 24.9336154,25.580276 25.0665113,25.6584208 L25.3631629,25.8341222 C25.6946561,26.0302308 25.8584118,26.280095 25.8584118,26.5862036 C25.8584118,26.8032172 25.7862398,26.979914 25.6413982,27.1148009 C25.4960588,27.2496878 25.3064208,27.3188733 25.0734796,27.3188733 C24.8066923,27.3188733 24.5642941,27.2372443 24.3437964,27.0714977 L24.3437964,26.579733 C24.5533439,26.8460226 24.7962398,26.9774253 25.0699955,26.9774253 C25.1914434,26.9774253 25.2919864,26.9435792 25.3726199,26.8763846 C25.4547466,26.8071991 25.4940679,26.7230814 25.4940679,26.6230362 C25.4940679,26.4572896 25.3761041,26.3019955 25.1381855,26.1526742" id="Fill-13" fill="#FFFFFF" mask="url(#mask-2)"></path>
                    <polygon id="Fill-14" fill="#FFFFFF" mask="url(#mask-2)" points="147.042127 28.848371 147.94552 28.848371 147.94552 6.5019457 147.042127 6.5019457"></polygon>
                    <path d="M178.49481,25.2435068 L178.49481,25.2435068 C179.722729,22.9325113 179.606258,19.1492081 179.606258,18.5200679 L182.578249,18.5200679 C182.578249,19.6295249 182.455805,24.3510633 178.49481,25.2435068" id="Fill-15" fill="#FFFFFF" mask="url(#mask-2)"></path>
                    <path d="M202.041081,14.6886833 C201.502529,14.6886833 201.063525,14.2496787 201.063525,13.7116244 L201.063525,10.8396787 L204.016104,10.8396787 L204.016104,12.2353348 C204.016104,12.7410362 204.427733,13.1516697 204.932439,13.1516697 L213.241172,13.1516697 C214.344656,13.1516697 215.241579,12.2542489 215.241579,11.1512624 L215.241579,9.68642081 C215.241579,9.21954299 214.862801,8.84026697 214.396919,8.84026697 L201.063525,8.84026697 L201.063525,7.30424887 L211.334837,7.30424887 C214.606466,7.30424887 215.942891,7.07728054 218.199633,6.62782353 L218.199633,11.4922127 C218.199633,13.2547014 216.764656,14.6886833 215.002167,14.6886833 L202.041081,14.6886833 Z" id="Fill-16" fill="#FFFFFF" mask="url(#mask-2)"></path>
                    <path d="M195.6789,7.30404977 L180.341118,7.30404977 L180.341118,8.84006787 L193.757633,8.84006787 C194.224014,8.84006787 194.602294,9.21884615 194.602294,9.68622172 L194.602294,13.9797059 C194.602294,14.7556787 193.974149,15.3843213 193.198674,15.3843213 L184.163244,15.3843213 C183.736186,15.3843213 183.389262,15.0373982 183.389262,14.6098416 L183.389262,13.7427828 C183.389262,13.2500226 183.788448,12.8508371 184.281706,12.8508371 L192.334602,12.8508371 L192.334602,11.314819 L181.897543,11.314819 C181.086231,11.314819 180.427226,11.9723303 180.427226,12.7836425 L180.427226,15.4510181 C180.427226,16.2628281 181.086231,16.9218326 181.897543,16.9218326 L195.6789,16.9218326 C196.713199,16.9218326 197.552882,16.0831448 197.552882,15.0478507 L197.552882,9.17753394 C197.552882,8.14323529 196.713199,7.30404977 195.6789,7.30404977" id="Fill-17" fill="#FFFFFF" mask="url(#mask-2)"></path>
                    <path d="M173.722054,28.1045023 L173.407484,28.1025113 L172.580742,28.1025113 C173.188977,27.4250905 173.764362,26.3967647 173.764362,25.2818326 L173.764362,25.1389819 L173.745448,25.1389819 L173.745448,9.68622172 C173.745448,9.21984163 173.367167,8.84006787 172.900787,8.84006787 L157.126986,8.84006787 L157.126986,7.30404977 L174.824045,7.30404977 C175.859837,7.30404977 176.698525,8.14273756 176.698525,9.17753394 L176.698525,25.2818326 C176.698525,27.2349548 175.404905,28.1025113 174.913638,28.1025113 L174.507484,28.1025113 L174.487575,28.1045023 L174.492552,28.1045023 L173.722054,28.1045023 Z" id="Fill-18" fill="#FFFFFF" mask="url(#mask-2)"></path>
                    <polygon id="Fill-19" fill="#FFFFFF" mask="url(#mask-2)" points="170.688991 20.4790136 171.862158 18.5199186 175.865462 25.2478371 174.788855 27.3458009"></polygon>
                    <polygon id="Fill-20" fill="#FFFFFF" mask="url(#mask-2)" points="157.821181 11.65781 159.743941 10.9998009 163.294303 16.5804344 162.131588 18.5201176"></polygon>
                    <path d="M166.977362,26.0093258 C166.727995,26.0093258 166.50252,25.881905 166.373606,25.6673801 L164.103425,21.8776063 L165.27062,19.9299593 L166.977362,22.7795068 L174.778403,9.75670136 L175.770394,11.9960226 L167.581118,25.6673801 C167.452701,25.881905 167.226231,26.0093258 166.977362,26.0093258" id="Fill-21" fill="#FFFFFF" mask="url(#mask-2)"></path>
                    <path d="M157.127086,26.8548326 L163.38962,16.4003529 L166.373557,11.4224796 C166.502471,11.209448 166.727946,11.0810317 166.977312,11.0810317 C167.226181,11.0810317 167.452652,11.209448 167.581068,11.4234751 L169.846271,15.2032941 L168.678579,17.1509412 L166.977312,14.3103529 L164.482154,18.4684525 L163.318941,20.4101267 L163.319937,20.4126154 L159.089665,27.4745158 L157.127086,26.8548326 Z" id="Fill-22" fill="#FFFFFF" mask="url(#mask-2)"></path>
                    <path d="M206.095452,19.7255882 C206.125317,19.2781222 206.49862,18.9282127 206.9431,18.9282127 L219.524412,18.9282127 L219.524412,17.3911991 L199.938439,17.3911991 L199.938439,18.9282127 L202.126493,18.9282127 C202.305679,18.9282127 202.477398,19.0023756 202.597851,19.134276 C202.719299,19.2666742 202.779525,19.4438688 202.76509,19.6230543 C202.698394,20.4149548 202.581923,21.1605656 202.39776,21.9678959 L202.362919,22.0778959 C202.361923,22.0818778 202.360928,22.0868552 202.36043,22.0913348 C202.199661,22.7752262 202.711833,23.4302489 203.41414,23.4302489 L214.46043,23.4302489 C214.613733,23.4302489 214.75957,23.496448 214.861109,23.6134163 C214.960158,23.7264027 215.004955,23.8767195 214.984548,24.023552 C214.762557,25.6143213 213.383824,26.7924661 211.774638,26.7924661 L203.058756,26.7924661 L202.612285,28.1045023 L213.234502,28.1045023 C215.976041,28.1045023 218.199434,25.8826018 218.199434,23.1410633 L218.199434,22.0769005 L206.481199,22.0778959 C206.305995,22.0778959 206.141244,22.0012443 206.02776,21.8673529 C205.915271,21.7319683 205.867489,21.556267 205.897353,21.3830543 L206.095452,19.7255882 Z" id="Fill-23" fill="#FFFFFF" mask="url(#mask-2)"></path>
                    <path d="M188.802955,28.1045023 C189.678475,25.3350905 189.837253,23.8229638 189.858656,21.5388462 C189.860647,21.3765837 189.799425,21.2232805 189.684448,21.1083032 C189.569968,20.9938235 189.419652,20.9301131 189.258882,20.9301131 L187.993136,20.9301131 C187.584493,20.9301131 187.247525,21.2362217 187.209697,21.6408824 C186.990195,23.9911991 186.373995,25.8691629 185.086846,28.1045023 L181.854041,28.1045023 C183.629471,25.135 184.372095,22.5826018 184.393498,19.3886199 L198.582005,19.3801584 L198.582005,25.2843213 C198.582005,27.2374434 197.288385,28.1045023 196.797615,28.1045023 L194.463724,28.1045023 C195.071959,27.4280769 195.646348,26.3992534 195.646348,25.2843213 L195.646348,21.5303846 C195.646348,21.1993891 195.378068,20.9301131 195.047072,20.9301131 L193.543905,20.9301131 C193.110873,20.9301131 192.756484,21.2854977 192.756484,21.7185294 C192.754991,24.0738235 192.473769,26.0488462 191.845127,28.1045023 L188.802955,28.1045023 Z" id="Fill-24" fill="#FFFFFF" mask="url(#mask-2)"></path>
                    <polygon id="Fill-25" fill="#FFFFFF" mask="url(#mask-2)" points="157.125643 28.1030588 157.127633 10.9704344 159.727814 10.9704344 160.064783 11.5035113 160.068267 28.1030588"></polygon>
                </g>
            </g>
        </g>
    </g>
</svg>